<mxfile host="app.diagrams.net" agent="Mozilla/5.0 (Macintosh; Intel Mac OS X 10_15_7) AppleWebKit/605.1.15 (KHTML, like Gecko) Version/17.6 Safari/605.1.15" version="28.2.1">
  <diagram name="Page-1" id="q3mTY-GbjNp5LtV8mj76">
    <mxGraphModel dx="949" dy="538" grid="1" gridSize="10" guides="1" tooltips="1" connect="1" arrows="1" fold="1" page="1" pageScale="1" pageWidth="827" pageHeight="1169" math="0" shadow="0">
      <root>
        <mxCell id="0" />
        <mxCell id="1" parent="0" />
        <mxCell id="HN5RtOdOPTMx-pdmhrSx-2" value="User" style="shape=umlActor;verticalLabelPosition=bottom;verticalAlign=top;html=1;" vertex="1" parent="1">
          <mxGeometry x="60" y="400" width="30" height="60" as="geometry" />
        </mxCell>
        <mxCell id="HN5RtOdOPTMx-pdmhrSx-11" value="&lt;span style=&quot;text-align: center;&quot;&gt;PDF to DOCX Converter&lt;/span&gt;" style="shape=folder;fontStyle=1;spacingTop=10;tabWidth=170;tabHeight=30;tabPosition=left;html=1;whiteSpace=wrap;labelPosition=center;verticalLabelPosition=top;align=center;verticalAlign=bottom;" vertex="1" parent="1">
          <mxGeometry x="124" y="150" width="580" height="490" as="geometry" />
        </mxCell>
        <mxCell id="HN5RtOdOPTMx-pdmhrSx-12" value="Select PDF File" style="ellipse;whiteSpace=wrap;html=1;" vertex="1" parent="1">
          <mxGeometry x="344" y="200" width="140" height="70" as="geometry" />
        </mxCell>
        <mxCell id="HN5RtOdOPTMx-pdmhrSx-13" value="Start Conversion" style="ellipse;whiteSpace=wrap;html=1;" vertex="1" parent="1">
          <mxGeometry x="344" y="290" width="140" height="70" as="geometry" />
        </mxCell>
        <mxCell id="HN5RtOdOPTMx-pdmhrSx-14" value="Show Progress" style="ellipse;whiteSpace=wrap;html=1;" vertex="1" parent="1">
          <mxGeometry x="344" y="380" width="140" height="70" as="geometry" />
        </mxCell>
        <mxCell id="HN5RtOdOPTMx-pdmhrSx-15" value="Show Results" style="ellipse;whiteSpace=wrap;html=1;" vertex="1" parent="1">
          <mxGeometry x="344" y="470" width="140" height="70" as="geometry" />
        </mxCell>
        <mxCell id="HN5RtOdOPTMx-pdmhrSx-16" value="Open DOCX File" style="ellipse;whiteSpace=wrap;html=1;" vertex="1" parent="1">
          <mxGeometry x="344" y="560" width="140" height="70" as="geometry" />
        </mxCell>
        <mxCell id="HN5RtOdOPTMx-pdmhrSx-23" value="" style="endArrow=none;dashed=1;html=1;rounded=0;exitX=1;exitY=0.3333333333333333;exitDx=0;exitDy=0;exitPerimeter=0;entryX=0;entryY=0.5;entryDx=0;entryDy=0;" edge="1" parent="1" source="HN5RtOdOPTMx-pdmhrSx-2" target="HN5RtOdOPTMx-pdmhrSx-12">
          <mxGeometry width="50" height="50" relative="1" as="geometry">
            <mxPoint x="390" y="430" as="sourcePoint" />
            <mxPoint x="440" y="380" as="targetPoint" />
          </mxGeometry>
        </mxCell>
        <mxCell id="HN5RtOdOPTMx-pdmhrSx-24" value="" style="endArrow=none;dashed=1;html=1;rounded=0;entryX=0;entryY=0.5;entryDx=0;entryDy=0;" edge="1" parent="1" target="HN5RtOdOPTMx-pdmhrSx-13">
          <mxGeometry width="50" height="50" relative="1" as="geometry">
            <mxPoint x="90" y="420" as="sourcePoint" />
            <mxPoint x="440" y="380" as="targetPoint" />
          </mxGeometry>
        </mxCell>
        <mxCell id="HN5RtOdOPTMx-pdmhrSx-25" value="" style="endArrow=none;dashed=1;html=1;rounded=0;exitX=1;exitY=0.3333333333333333;exitDx=0;exitDy=0;exitPerimeter=0;entryX=0;entryY=0.5;entryDx=0;entryDy=0;" edge="1" parent="1" source="HN5RtOdOPTMx-pdmhrSx-2" target="HN5RtOdOPTMx-pdmhrSx-14">
          <mxGeometry width="50" height="50" relative="1" as="geometry">
            <mxPoint x="390" y="430" as="sourcePoint" />
            <mxPoint x="440" y="380" as="targetPoint" />
          </mxGeometry>
        </mxCell>
        <mxCell id="HN5RtOdOPTMx-pdmhrSx-26" value="" style="endArrow=none;dashed=1;html=1;rounded=0;entryX=0;entryY=0.5;entryDx=0;entryDy=0;" edge="1" parent="1" target="HN5RtOdOPTMx-pdmhrSx-15">
          <mxGeometry width="50" height="50" relative="1" as="geometry">
            <mxPoint x="90" y="420" as="sourcePoint" />
            <mxPoint x="440" y="380" as="targetPoint" />
          </mxGeometry>
        </mxCell>
        <mxCell id="HN5RtOdOPTMx-pdmhrSx-27" value="" style="endArrow=none;dashed=1;html=1;rounded=0;entryX=0;entryY=0.5;entryDx=0;entryDy=0;" edge="1" parent="1" target="HN5RtOdOPTMx-pdmhrSx-16">
          <mxGeometry width="50" height="50" relative="1" as="geometry">
            <mxPoint x="90" y="420" as="sourcePoint" />
            <mxPoint x="440" y="380" as="targetPoint" />
          </mxGeometry>
        </mxCell>
      </root>
    </mxGraphModel>
  </diagram>
</mxfile>
